<svg width="32" height="32" viewBox="0 0 32 32" fill="none" xmlns="http://www.w3.org/2000/svg">
<path d="M4.33331 25.3334V22.6664C4.33349 22.1142 4.78114 21.6664 5.33331 21.6664C5.88549 21.6664 6.33314 22.1142 6.33331 22.6664V25.3334C6.33331 25.7754 6.50903 26.1995 6.82159 26.5121C7.13414 26.8245 7.55835 27.0004 8.00031 27.0004H24.0003C24.4421 27.0003 24.8656 26.8244 25.178 26.5121C25.4906 26.1995 25.6663 25.7754 25.6663 25.3334V22.6664C25.6665 22.1144 26.1143 21.6666 26.6663 21.6664C27.2185 21.6664 27.6661 22.1142 27.6663 22.6664V25.3334C27.6663 26.3058 27.2806 27.2385 26.5931 27.9261C25.9055 28.6137 24.9726 29.0003 24.0003 29.0004H8.00031C7.02792 29.0004 6.09515 28.6137 5.40753 27.9261C4.7199 27.2385 4.33331 26.3058 4.33331 25.3334ZM15.0003 5.33337C15.0003 4.78109 15.448 4.33337 16.0003 4.33337C16.5524 4.33355 17.0003 4.7812 17.0003 5.33337V18.9183L21.9593 13.9594C22.3497 13.5689 22.9828 13.5692 23.3734 13.9594C23.7639 14.3499 23.7639 14.9829 23.3734 15.3734L16.7073 22.0404C16.3169 22.4309 15.6838 22.4308 15.2933 22.0404L8.62628 15.3734C8.23592 14.9829 8.23581 14.3498 8.62628 13.9594C9.01676 13.569 9.64986 13.569 10.0403 13.9594L15.0003 18.9193V5.33337Z" fill="currentColor"/>
</svg>
